<svg width="512" height="186" viewBox="0 0 512 186" fill="none" xmlns="http://www.w3.org/2000/svg">
<path d="M217.072 145.527H191.59V3.92188H217.072V145.527Z" fill="#03C5B8" style="fill:#03C5B8;fill:color(display-p3 0.0118 0.7725 0.7216);fill-opacity:1;"/>
<path d="M326.88 111.517V52.8518H352.561V106.662C352.561 119.406 360.857 124.464 369.944 124.464C379.031 124.464 387.328 119.406 387.328 106.662V52.8518H412.811V111.517C412.811 130.937 397.797 147.93 369.944 147.93C342.091 147.93 326.88 130.937 326.88 111.517Z" fill="#03C5B8" style="fill:#03C5B8;fill:color(display-p3 0.0118 0.7725 0.7216);fill-opacity:1;"/>
<path d="M512 86.8622V145.527H486.32V91.7173C486.32 78.9728 478.023 73.9155 468.936 73.9155C459.849 73.9155 451.553 78.9728 451.553 91.7173V145.527H426.07V86.8622C426.07 67.4421 441.083 50.4495 468.936 50.4495C496.789 50.4495 512 67.4421 512 86.8622Z" fill="#03C5B8" style="fill:#03C5B8;fill:color(display-p3 0.0118 0.7725 0.7216);fill-opacity:1;"/>
<path d="M256.062 145.527H230.579V3.92188H256.062V145.527Z" fill="#03C5B8" style="fill:#03C5B8;fill:color(display-p3 0.0118 0.7725 0.7216);fill-opacity:1;"/>
<path d="M264.063 85.1176L286.064 56.6954C287.941 54.2678 290.781 52.8518 293.793 52.8518H320.041L288.83 90.7818C286.632 93.4622 286.509 97.331 288.534 100.163L321.029 145.527H295.373C292.139 145.527 289.126 143.909 287.274 141.203L263.446 106.257C259.075 99.8344 259.322 91.2623 264.063 85.1176Z" fill="#03C5B8" style="fill:#03C5B8;fill:color(display-p3 0.0118 0.7725 0.7216);fill-opacity:1;"/>
<path d="M25.4827 145.527H0V3.92188H25.4827V145.527Z" fill="#03C5B8" style="fill:#03C5B8;fill:color(display-p3 0.0118 0.7725 0.7216);fill-opacity:1;"/>
<path d="M33.4833 85.1176L55.4844 56.6954C57.361 54.2678 60.2007 52.8518 63.2132 52.8518H89.4614L58.25 90.7818C56.0523 93.4622 55.9289 97.331 57.9537 100.163L90.4491 145.527H64.7935C61.5588 145.527 58.5463 143.909 56.6943 141.203L32.866 106.257C28.4954 99.8344 28.7423 91.2623 33.4833 85.1176Z" fill="#03C5B8" style="fill:#03C5B8;fill:color(display-p3 0.0118 0.7725 0.7216);fill-opacity:1;"/>
<path d="M178.849 105.878C178.849 67.0376 156.329 50.4495 131.439 50.4495C104.376 50.4495 84.4241 70.8811 84.4241 99.2022C84.4241 127.523 104.771 147.955 131.834 147.955C151.983 147.955 168.971 138.649 177.071 118.825C177.441 117.889 177.787 116.953 178.108 115.993H150.403C146.847 122.264 139.735 125.5 132.229 125.5C120.772 125.5 112.87 117.206 111.487 106.889H178.849V105.878ZM110.895 89.2898C112.87 79.3775 120.574 72.2972 131.439 72.2972C142.303 72.2972 150.008 79.9843 151.39 89.2898H110.895Z" fill="#03C5B8" style="fill:#03C5B8;fill:color(display-p3 0.0118 0.7725 0.7216);fill-opacity:1;"/>
<path d="M4.82989 177.884H14.7862V181.782H0V152.336H4.82989V177.884Z" fill="#0E2F58" style="fill:#0E2F58;fill:color(display-p3 0.0549 0.1843 0.3451);fill-opacity:1;"/>
<path d="M23.6553 156.234V164.877H33.8235V168.817H23.6553V177.841H35.0945V181.782H18.8254V152.294H35.0945V156.234H23.6553Z" fill="#0E2F58" style="fill:#0E2F58;fill:color(display-p3 0.0549 0.1843 0.3451);fill-opacity:1;"/>
<path d="M69.3774 152.336V156.276H56.879V164.962H66.6235V168.902H56.879V181.782H52.0491V152.336H69.3774Z" fill="#0E2F58" style="fill:#0E2F58;fill:color(display-p3 0.0549 0.1843 0.3451);fill-opacity:1;"/>
<path d="M78.641 152.336V171.105C78.641 173.336 79.22 175.017 80.378 176.147C81.5643 177.276 83.2025 177.841 85.2927 177.841C87.411 177.841 89.0493 177.276 90.2073 176.147C91.3936 175.017 91.9867 173.336 91.9867 171.105V152.336H96.8166V171.02C96.8166 173.421 96.2941 175.455 95.249 177.121C94.204 178.788 92.8058 180.03 91.0547 180.849C89.3035 181.669 87.3687 182.078 85.2503 182.078C83.1319 182.078 81.1971 181.669 79.446 180.849C77.723 180.03 76.3531 178.788 75.3363 177.121C74.3195 175.455 73.8111 173.421 73.8111 171.02V152.336H78.641Z" fill="#0E2F58" style="fill:#0E2F58;fill:color(display-p3 0.0549 0.1843 0.3451);fill-opacity:1;"/>
<path d="M122.128 152.336V156.276H114.29V181.782H109.46V156.276H101.58V152.336H122.128Z" fill="#0E2F58" style="fill:#0E2F58;fill:color(display-p3 0.0549 0.1843 0.3451);fill-opacity:1;"/>
<path d="M131.807 152.336V171.105C131.807 173.336 132.386 175.017 133.544 176.147C134.731 177.276 136.369 177.841 138.459 177.841C140.577 177.841 142.215 177.276 143.374 176.147C144.56 175.017 145.153 173.336 145.153 171.105V152.336H149.983V171.02C149.983 173.421 149.46 175.455 148.415 177.121C147.37 178.788 145.972 180.03 144.221 180.849C142.47 181.669 140.535 182.078 138.417 182.078C136.298 182.078 134.363 181.669 132.612 180.849C130.889 180.03 129.519 178.788 128.503 177.121C127.486 175.455 126.977 173.421 126.977 171.02V152.336H131.807Z" fill="#0E2F58" style="fill:#0E2F58;fill:color(display-p3 0.0549 0.1843 0.3451);fill-opacity:1;"/>
<path d="M171.566 181.782L164.787 170.003H161.101V181.782H156.271V152.336H166.44C168.699 152.336 170.606 152.732 172.159 153.522C173.741 154.313 174.913 155.372 175.676 156.7C176.467 158.028 176.862 159.51 176.862 161.149C176.862 163.069 176.297 164.82 175.167 166.402C174.066 167.956 172.357 169.015 170.041 169.58L177.328 181.782H171.566ZM161.101 166.148H166.44C168.247 166.148 169.603 165.696 170.507 164.792C171.439 163.888 171.905 162.674 171.905 161.149C171.905 159.623 171.453 158.437 170.549 157.59C169.645 156.714 168.276 156.276 166.44 156.276H161.101V166.148Z" fill="#0E2F58" style="fill:#0E2F58;fill:color(display-p3 0.0549 0.1843 0.3451);fill-opacity:1;"/>
<path d="M203.664 152.336C206.799 152.336 209.539 152.943 211.883 154.158C214.256 155.344 216.077 157.067 217.348 159.327C218.648 161.558 219.297 164.171 219.297 167.165C219.297 170.159 218.648 172.757 217.348 174.96C216.077 177.163 214.256 178.858 211.883 180.044C209.539 181.203 206.799 181.782 203.664 181.782H194.046V152.336H203.664ZM203.664 177.841C207.11 177.841 209.751 176.909 211.586 175.045C213.422 173.181 214.34 170.554 214.34 167.165C214.34 163.747 213.422 161.078 211.586 159.157C209.751 157.237 207.11 156.276 203.664 156.276H198.876V177.841H203.664Z" fill="#0E2F58" style="fill:#0E2F58;fill:color(display-p3 0.0549 0.1843 0.3451);fill-opacity:1;"/>
<path d="M228.914 156.234V164.877H239.082V168.817H228.914V177.841H240.353V181.782H224.084V152.294H240.353V156.234H228.914Z" fill="#0E2F58" style="fill:#0E2F58;fill:color(display-p3 0.0549 0.1843 0.3451);fill-opacity:1;"/>
<path d="M262.138 177.884H272.094V181.782H257.308V152.336H262.138V177.884Z" fill="#0E2F58" style="fill:#0E2F58;fill:color(display-p3 0.0549 0.1843 0.3451);fill-opacity:1;"/>
<path d="M276.896 152.336H282.149L277.701 162.42H274.312L276.896 152.336Z" fill="#0E2F58" style="fill:#0E2F58;fill:color(display-p3 0.0549 0.1843 0.3451);fill-opacity:1;"/>
<path d="M304.146 175.765H291.817L289.699 181.782H284.657L295.207 152.294H300.799L311.349 181.782H306.265L304.146 175.765ZM302.79 171.825L298.003 158.14L293.173 171.825H302.79Z" fill="#0E2F58" style="fill:#0E2F58;fill:color(display-p3 0.0549 0.1843 0.3451);fill-opacity:1;"/>
<path d="M331.23 181.782L324.451 170.003H320.765V181.782H315.936V152.336H326.104C328.363 152.336 330.27 152.732 331.823 153.522C333.405 154.313 334.577 155.372 335.34 156.7C336.131 158.028 336.526 159.51 336.526 161.149C336.526 163.069 335.961 164.82 334.831 166.402C333.73 167.956 332.021 169.015 329.705 169.58L336.992 181.782H331.23ZM320.765 166.148H326.104C327.911 166.148 329.267 165.696 330.171 164.792C331.103 163.888 331.569 162.674 331.569 161.149C331.569 159.623 331.117 158.437 330.213 157.59C329.31 156.714 327.94 156.276 326.104 156.276H320.765V166.148Z" fill="#0E2F58" style="fill:#0E2F58;fill:color(display-p3 0.0549 0.1843 0.3451);fill-opacity:1;"/>
<path d="M361.728 152.336V156.276H353.89V181.782H349.06V156.276H341.18V152.336H361.728Z" fill="#0E2F58" style="fill:#0E2F58;fill:color(display-p3 0.0549 0.1843 0.3451);fill-opacity:1;"/>
<path d="M371.449 152.336V181.782H366.619V152.336H371.449Z" fill="#0E2F58" style="fill:#0E2F58;fill:color(display-p3 0.0549 0.1843 0.3451);fill-opacity:1;"/>
<path d="M387.493 182.078C385.515 182.078 383.736 181.739 382.154 181.061C380.573 180.355 379.33 179.367 378.426 178.096C377.522 176.825 377.07 175.342 377.07 173.647H382.239C382.352 174.918 382.846 175.963 383.722 176.782C384.626 177.601 385.883 178.011 387.493 178.011C389.159 178.011 390.458 177.615 391.39 176.825C392.322 176.005 392.789 174.96 392.789 173.689C392.789 172.701 392.492 171.896 391.899 171.274C391.334 170.653 390.614 170.173 389.738 169.834C388.891 169.495 387.704 169.128 386.179 168.732C384.259 168.224 382.691 167.716 381.476 167.207C380.29 166.67 379.273 165.851 378.426 164.75C377.579 163.648 377.155 162.18 377.155 160.344C377.155 158.649 377.579 157.166 378.426 155.895C379.273 154.624 380.46 153.65 381.985 152.972C383.51 152.294 385.275 151.955 387.281 151.955C390.133 151.955 392.464 152.675 394.271 154.116C396.107 155.528 397.124 157.477 397.322 159.962H391.984C391.899 158.889 391.39 157.971 390.458 157.208C389.526 156.446 388.298 156.064 386.772 156.064C385.388 156.064 384.259 156.418 383.383 157.124C382.507 157.83 382.07 158.847 382.07 160.174C382.07 161.078 382.338 161.826 382.875 162.42C383.439 162.985 384.146 163.436 384.993 163.775C385.84 164.114 386.998 164.481 388.467 164.877C390.416 165.414 391.998 165.95 393.212 166.487C394.455 167.024 395.5 167.857 396.347 168.987C397.223 170.088 397.661 171.571 397.661 173.435C397.661 174.932 397.251 176.344 396.432 177.672C395.641 178.999 394.469 180.073 392.916 180.892C391.39 181.683 389.583 182.078 387.493 182.078Z" fill="#0E2F58" style="fill:#0E2F58;fill:color(display-p3 0.0549 0.1843 0.3451);fill-opacity:1;"/>
<path d="M421.112 175.765H408.783L406.665 181.782H401.623L412.172 152.294H417.765L428.314 181.782H423.23L421.112 175.765ZM419.756 171.825L414.969 158.14L410.139 171.825H419.756Z" fill="#0E2F58" style="fill:#0E2F58;fill:color(display-p3 0.0549 0.1843 0.3451);fill-opacity:1;"/>
<path d="M457.093 181.782H452.263L437.731 159.793V181.782H432.901V152.294H437.731L452.263 174.24V152.294H457.093V181.782Z" fill="#0E2F58" style="fill:#0E2F58;fill:color(display-p3 0.0549 0.1843 0.3451);fill-opacity:1;"/>
<path d="M481.188 175.765H468.859L466.74 181.782H461.699L472.248 152.294H477.841L488.39 181.782H483.306L481.188 175.765ZM479.832 171.825L475.044 158.14L470.214 171.825H479.832Z" fill="#0E2F58" style="fill:#0E2F58;fill:color(display-p3 0.0549 0.1843 0.3451);fill-opacity:1;"/>
<path d="M512 152.336V156.276H504.162V181.782H499.332V156.276H491.452V152.336H512Z" fill="#0E2F58" style="fill:#0E2F58;fill:color(display-p3 0.0549 0.1843 0.3451);fill-opacity:1;"/>
</svg>
